# xmcd
#
# Track frame offsets: 
#        150
#        13472
#        34452
#        58520
#        79827
#        95912
#        116732
#        133972
#        148700
#        170090
#        193222
#        209680
#        225665
#
# Disc length: 3281 seconds
#
# Revision: 1
# Processed by: cddbd v1.5.2PL0 Copyright (c) Steve Scherf et al.
# Submitted via: ExactAudioCopyFreeDBPlugin 1.0
#
DISCID=d30ccf0d
DTITLE=憂歌団 - GON-TA
DYEAR=1900
DGENRE=JPop
TTITLE0=気分上々
TTITLE1=WOO CHILD
TTITLE2=ミナミの楽園
TTITLE3=夢のワルツ
TTITLE4=SWEET and MELLOW
TTITLE5=純愛だけど朝帰り
TTITLE6=CHIKITA DOLL
TTITLE7=シューズの紐
TTITLE8=ほし草の夢
TTITLE9=東京酔っぱらいブルース
TTITLE10=俺たちゃユーレイ
TTITLE11=苦労の缶詰
TTITLE12=やさしい女
EXTD=
EXTT0=
EXTT1=
EXTT2=
EXTT3=
EXTT4=
EXTT5=
EXTT6=
EXTT7=
EXTT8=
EXTT9=
EXTT10=
EXTT11=
EXTT12=
PLAYORDER=
